<svg width="97" height="30" viewBox="0 0 97 30" fill="none" xmlns="http://www.w3.org/2000/svg">
<path fill-rule="evenodd" clip-rule="evenodd" d="M20.5542 0.00055259H25.7486V24.042H19.7829V9.02488L13.3269 16.5691H12.4179L5.96138 9.02488V24.042H0V0.00055259H5.19055L12.8718 8.92094L20.5542 0.00055259ZM55.66 24.042H49.2404L47.2762 19.2827H36.5792L34.79 24.042H28.4754L38.1214 0H45.0325L55.66 24.042ZM41.6642 5.74622L38.1583 15.0885H45.5232L41.6642 5.74622ZM57.5115 28.9069C58.5293 27.9913 59.2996 26.0523 59.0889 24.3594C57.8636 23.8656 57.2996 23.0916 57.2996 21.7868C57.2996 20.1657 58.5288 19.0013 60.1805 19.0013C62.2459 19.0013 63.6869 20.6589 63.6869 23.0208C63.6869 26.5461 60.9507 29.6489 57.5109 30L57.5115 28.9069ZM72.5626 9.87136C73.4396 9.05971 74.3519 8.46038 75.2608 8.03852C76.1853 7.65893 77.1754 7.46707 78.1741 7.47401C80.9828 7.47401 82.8733 8.60357 83.9984 10.9301C86.1046 8.49742 87.9626 7.47401 90.3818 7.47401C94.0665 7.47401 96.6964 9.9084 96.6964 13.6095V24.0431H91.6115V14.524C91.6115 12.199 90.4875 10.8948 88.6294 10.8948C87.1549 10.8948 85.7882 11.8446 84.6279 13.6432V24.0426H79.5441V14.4178C79.5441 11.775 77.9644 10.8942 76.4547 10.8942C75.1232 10.8942 73.7929 11.6688 72.5637 13.1495V24.042H67.4744V7.79137H72.5637V9.87136H72.5626Z" fill="white"/>
</svg>
