<svg width="18" height="17" viewBox="0 0 18 17" fill="none" xmlns="http://www.w3.org/2000/svg">
<path fill-rule="evenodd" clip-rule="evenodd" d="M6.50003 1.50008C6.50003 1.27907 6.58783 1.06711 6.74411 0.910826C6.90039 0.754545 7.11235 0.666748 7.33336 0.666748H10.6667C10.8877 0.666748 11.0997 0.754545 11.256 0.910826C11.4122 1.06711 11.5 1.27907 11.5 1.50008V3.16675H14C14.123 3.1668 14.2444 3.19406 14.3556 3.24658C14.4668 3.2991 14.565 3.37558 14.6431 3.47053C14.7213 3.56548 14.7775 3.67655 14.8076 3.79577C14.8377 3.91499 14.8411 4.0394 14.8175 4.16008L14.4534 6.02508L13.3475 5.77925L9.18086 4.85341C9.06176 4.82694 8.9383 4.82694 8.8192 4.85341L4.65253 5.77841L3.5467 6.02508L3.18253 4.16008C3.15892 4.0394 3.16231 3.91499 3.19246 3.79577C3.22261 3.67655 3.27877 3.56548 3.35691 3.47053C3.43506 3.37558 3.53324 3.2991 3.64443 3.24658C3.75562 3.19406 3.87706 3.1668 4.00003 3.16675H6.50003V1.50008ZM1.42336 8.16341L1.3192 8.18675C1.19565 8.21428 1.08001 8.2696 0.981035 8.3485C0.882062 8.4274 0.802362 8.52781 0.747984 8.64211C0.693606 8.75641 0.665979 8.88159 0.6672 9.00816C0.668421 9.13473 0.698458 9.25935 0.75503 9.37258L2.4217 12.7059C2.49984 12.8623 2.62517 12.9901 2.77996 13.0713C2.93474 13.1525 3.11114 13.183 3.2842 13.1584L9.00003 12.3417L14.7159 13.1584C14.8889 13.183 15.0653 13.1525 15.2201 13.0713C15.3749 12.9901 15.5002 12.8623 15.5784 12.7059L17.245 9.37258C17.3016 9.25935 17.3316 9.13473 17.3329 9.00816C17.3341 8.88159 17.3065 8.75641 17.2521 8.64211C17.1977 8.52781 17.118 8.4274 17.019 8.3485C16.9201 8.2696 16.8044 8.21428 16.6809 8.18675L16.5767 8.16341C16.4905 8.17126 16.4036 8.16564 16.3192 8.14675L12.9859 7.40591L9.00003 6.52008L5.0142 7.40591L1.68086 8.14758C1.59637 8.16619 1.5095 8.17154 1.42336 8.16341ZM6.72336 14.5042C7.00736 14.1797 7.35746 13.9196 7.75018 13.7414C8.14291 13.5632 8.56919 13.471 9.00045 13.471C9.43171 13.471 9.85799 13.5632 10.2507 13.7414C10.6434 13.9196 10.9935 14.1797 11.2775 14.5042L11.3067 14.5376C11.5157 14.7767 11.8045 14.9316 12.1193 14.9734C12.4341 15.0153 12.7533 14.9412 13.0175 14.7651C13.419 14.4976 13.8794 14.3317 14.3592 14.2818C14.839 14.2318 15.3238 14.2993 15.7717 14.4784L16.8092 14.8926C17.011 14.9769 17.1716 15.1372 17.2563 15.3389C17.3409 15.5406 17.3429 15.7675 17.2617 15.9707C17.1806 16.1738 17.0228 16.3369 16.8224 16.4247C16.6221 16.5125 16.3952 16.518 16.1909 16.4401L15.1534 16.0251C14.9563 15.9463 14.743 15.9167 14.5319 15.9388C14.3208 15.9608 14.1182 16.0339 13.9417 16.1517C13.3411 16.5521 12.6154 16.7204 11.8999 16.6254C11.1844 16.5303 10.5278 16.1784 10.0525 15.6351L10.0234 15.6017C9.89579 15.4558 9.73847 15.3388 9.56197 15.2587C9.38548 15.1785 9.19387 15.1371 9.00003 15.1371C8.80619 15.1371 8.61458 15.1785 8.43808 15.2587C8.26158 15.3388 8.10427 15.4558 7.9767 15.6017L7.94753 15.6351C7.47227 16.1784 6.81571 16.5303 6.10018 16.6254C5.38466 16.7204 4.65898 16.5521 4.05836 16.1517C3.88182 16.0339 3.67927 15.9608 3.46817 15.9388C3.25708 15.9167 3.04379 15.9463 2.8467 16.0251L1.8092 16.4401C1.70721 16.4827 1.59776 16.5046 1.48722 16.5045C1.37669 16.5044 1.26727 16.4824 1.16535 16.4396C1.06343 16.3968 0.971035 16.3342 0.893551 16.2553C0.816068 16.1765 0.755043 16.083 0.714029 15.9804C0.673015 15.8777 0.652832 15.768 0.654654 15.6574C0.656477 15.5469 0.68027 15.4379 0.724646 15.3366C0.769023 15.2354 0.833097 15.144 0.913138 15.0678C0.993178 14.9915 1.08759 14.932 1.19086 14.8926L2.22836 14.4784C2.67628 14.2993 3.16103 14.2318 3.64083 14.2818C4.12063 14.3317 4.58109 14.4976 4.98253 14.7651C5.24674 14.9412 5.566 15.0153 5.88078 14.9734C6.19556 14.9316 6.48437 14.7767 6.69336 14.5376L6.72336 14.5042Z" fill="#BD0007"/>
</svg>
